<?xml version="1.0" encoding="UTF-8"?>
<svg id="Layer_2" data-name="Layer 2" xmlns="http://www.w3.org/2000/svg" viewBox="0 0 319.12 256.02">
  <defs>
    <style>
      .cls-1 {
        fill: #38ffb3;
        stroke-width: 0px;
      }
    </style>
  </defs>
  <g id="Layer_8" data-name="Layer 8">
    <path class="cls-1" d="m312.26,105.04l-56.42-86.1C248.11,7.12,234.93,0,220.79,0h-122.47c-14.13,0-27.3,7.12-35.05,18.94L6.86,105.04c-9.14,13.95-9.14,31.99,0,45.94l56.42,86.1c7.75,11.82,20.92,18.94,35.05,18.94h122.47c14.13,0,27.31-7.12,35.05-18.94l56.42-86.1c9.14-13.95,9.14-31.99,0-45.94Zm-57.69-31.54l-.07.09-60.36,79.61c-.22.29-.48.64-.74.99-6.24,7.95-9.37,16.73-9.29,26.12l.48,38.84c.12,13.22-10.76,24.07-24.26,24.19h-.22c-13.38,0-24.36-10.65-24.48-23.75l-.48-38.85c-.08-9.28-3.54-18.99-9.48-26.69-.26-.33-.51-.66-.73-.99l-59.99-79.35c-7.54-10.95-4.58-25.88,6.62-33.28,11.17-7.36,26.37-4.49,33.94,6.42l48.69,63.96c2.7,3.55,8.14,3.56,10.85,0l49.12-64.42c3.7-5.26,9.25-8.8,15.65-9.98,6.43-1.18,12.94.16,18.34,3.77,11.14,7.47,14.02,22.41,6.41,33.32Z"/>
  </g>
</svg>