<?xml version="1.0" encoding="UTF-8"?>
<svg id="Layer_2" data-name="Layer 2" xmlns="http://www.w3.org/2000/svg" viewBox="0 0 327.88 256.02">
  <defs>
    <style>
      .cls-1 {
        fill: #38ffb3;
        stroke-width: 0px;
      }
    </style>
  </defs>
  <g id="Layer_5" data-name="Layer 5">
    <g>
      <path class="cls-1" d="m72.07,227.41h-6.48c-1.3,0-2.11,1.52-1.45,2.73,3.2,5.8,6.34,10.92,9.73,15.87,4.68,6.84,11.08,10.02,18.95,9.99,4.85-.01,9.71.02,14.57.02l138.96-.32c1.31-.01,2.12-1.55,1.43-2.75l-8.47-14.87s-.04-.07-.07-.11c-2.66-4.15-6.23-7.16-10.66-9.04-3.9-1.66-7.98-1.51-12.02-1.51H72.07Z"/>
      <path class="cls-1" d="m52.67,191c-1.86,2.67-3.66,5.41-5.28,8.22-1.3,2.26-2.03,2.46-3.54.07-4.38-6.95-9.01-13.72-13.53-20.58-8.7-13.21-17.21-26.55-26.15-39.59-5.66-8.26-5.51-15.86.07-24.09,13.08-19.28,25.89-38.75,38.69-58.22,1.65-2.51,2.45-2.28,3.85.08,3.27,5.49,7.37,10.49,9.45,16.65.78,2.3,1.28,4.65,1.23,7.1-.13,5.01-2.06,9.38-4.75,13.48-5.09,7.78-10.15,15.58-15.31,23.32-4.44,6.66-4.51,13.3-.13,19.97,5.04,7.67,10.03,15.37,15.2,22.95,6.97,10.22,7.37,20.36.2,30.65Z"/>
      <path class="cls-1" d="m275.2,191c1.86,2.67,3.66,5.41,5.28,8.22,1.3,2.26,2.03,2.46,3.54.07,4.38-6.95,9.01-13.72,13.53-20.58,8.7-13.21,17.21-26.55,26.15-39.59,5.66-8.26,5.51-15.86-.07-24.09-13.08-19.28-25.89-38.75-38.69-58.22-1.65-2.51-2.45-2.28-3.85.08-3.27,5.49-7.37,10.49-9.45,16.65-.78,2.3-1.28,4.65-1.23,7.1.13,5.01,2.06,9.38,4.75,13.48,5.09,7.78,10.15,15.58,15.31,23.32,4.44,6.66,4.51,13.3.13,19.97-5.04,7.67-10.03,15.37-15.2,22.95-6.97,10.22-7.37,20.36-.2,30.65Z"/>
      <path class="cls-1" d="m254.08,36.44l-.07.09-57.41,77.35c-.2.29-.45.63-.7.97-5.94,7.72-8.91,16.26-8.83,25.39l.46,37.74c.12,12.85-10.24,23.38-23.08,23.51h-.21c-12.73,0-23.17-10.36-23.29-23.09l-.45-37.75c-.08-9.01-3.37-18.46-9.02-25.93-.25-.33-.48-.65-.7-.97l-57.06-77.1c-7.18-10.65-4.35-25.15,6.29-32.34C90.64-2.84,105.1-.05,112.3,10.55l46.31,62.15c2.57,3.46,7.75,3.46,10.33,0l46.72-62.6c3.51-5.11,8.8-8.55,14.88-9.7,6.12-1.15,12.31.15,17.45,3.66,10.6,7.25,13.33,21.77,6.09,32.37Z"/>
    </g>
  </g>
</svg>